<mxfile host="app.diagrams.net" modified="2022-03-31T09:16:18.026Z" agent="5.0 (Windows NT 10.0; Win64; x64) AppleWebKit/537.36 (KHTML, like Gecko) Chrome/100.0.4896.60 Safari/537.36" etag="92ztFuNABKQl0v_3xTmD" version="17.3.0" type="github">
  <diagram id="C5RBs43oDa-KdzZeNtuy" name="Global">
    <mxGraphModel dx="1102" dy="582" grid="1" gridSize="10" guides="1" tooltips="1" connect="1" arrows="1" fold="1" page="1" pageScale="1" pageWidth="827" pageHeight="1169" math="0" shadow="0">
      <root>
        <mxCell id="WIyWlLk6GJQsqaUBKTNV-0" />
        <mxCell id="WIyWlLk6GJQsqaUBKTNV-1" parent="WIyWlLk6GJQsqaUBKTNV-0" />
        <mxCell id="yzFiOKYZT9Ef38Pqaord-11" value="" style="group;dashed=1;strokeColor=none;fillColor=none;" vertex="1" connectable="0" parent="WIyWlLk6GJQsqaUBKTNV-1">
          <mxGeometry x="70" y="60" width="310" height="480" as="geometry" />
        </mxCell>
        <mxCell id="yzFiOKYZT9Ef38Pqaord-7" value="" style="rounded=1;whiteSpace=wrap;html=1;dashed=1;" vertex="1" parent="yzFiOKYZT9Ef38Pqaord-11">
          <mxGeometry y="30" width="310" height="450" as="geometry" />
        </mxCell>
        <mxCell id="yzFiOKYZT9Ef38Pqaord-10" value="Backend" style="text;html=1;strokeColor=none;fillColor=none;align=center;verticalAlign=middle;whiteSpace=wrap;rounded=0;" vertex="1" parent="yzFiOKYZT9Ef38Pqaord-11">
          <mxGeometry x="125" width="60" height="30" as="geometry" />
        </mxCell>
        <mxCell id="yzFiOKYZT9Ef38Pqaord-20" value="Requirement&lt;br&gt;Queue" style="shape=process;whiteSpace=wrap;html=1;backgroundOutline=1;dashed=1;strokeColor=#000000;fillColor=none;" vertex="1" parent="yzFiOKYZT9Ef38Pqaord-11">
          <mxGeometry x="45" y="80" width="220" height="70" as="geometry" />
        </mxCell>
        <mxCell id="yzFiOKYZT9Ef38Pqaord-26" value="Database" style="shape=cylinder3;whiteSpace=wrap;html=1;boundedLbl=1;backgroundOutline=1;size=15;dashed=1;strokeColor=#000000;fillColor=none;" vertex="1" parent="yzFiOKYZT9Ef38Pqaord-11">
          <mxGeometry x="30" y="370" width="250" height="80" as="geometry" />
        </mxCell>
        <mxCell id="yzFiOKYZT9Ef38Pqaord-13" value="" style="group" vertex="1" connectable="0" parent="WIyWlLk6GJQsqaUBKTNV-1">
          <mxGeometry x="530" y="58" width="240" height="240" as="geometry" />
        </mxCell>
        <mxCell id="yzFiOKYZT9Ef38Pqaord-8" value="" style="rounded=1;whiteSpace=wrap;html=1;dashed=1;" vertex="1" parent="yzFiOKYZT9Ef38Pqaord-13">
          <mxGeometry y="30" width="240" height="210" as="geometry" />
        </mxCell>
        <mxCell id="yzFiOKYZT9Ef38Pqaord-12" value="Frontend" style="text;html=1;strokeColor=none;fillColor=none;align=center;verticalAlign=middle;whiteSpace=wrap;rounded=0;" vertex="1" parent="yzFiOKYZT9Ef38Pqaord-13">
          <mxGeometry x="90" width="60" height="30" as="geometry" />
        </mxCell>
        <mxCell id="yzFiOKYZT9Ef38Pqaord-30" value="Dashboard" style="shape=trapezoid;perimeter=trapezoidPerimeter;whiteSpace=wrap;html=1;fixedSize=1;dashed=1;strokeColor=#000000;fillColor=none;" vertex="1" parent="yzFiOKYZT9Ef38Pqaord-13">
          <mxGeometry x="60" y="52" width="120" height="60" as="geometry" />
        </mxCell>
        <mxCell id="yzFiOKYZT9Ef38Pqaord-31" value="User" style="shape=umlActor;verticalLabelPosition=bottom;verticalAlign=top;html=1;outlineConnect=0;dashed=1;strokeColor=#000000;fillColor=none;" vertex="1" parent="yzFiOKYZT9Ef38Pqaord-13">
          <mxGeometry x="46" y="152" width="30" height="60" as="geometry" />
        </mxCell>
        <mxCell id="yzFiOKYZT9Ef38Pqaord-32" value="User" style="shape=umlActor;verticalLabelPosition=bottom;verticalAlign=top;html=1;outlineConnect=0;dashed=1;strokeColor=#000000;fillColor=none;" vertex="1" parent="yzFiOKYZT9Ef38Pqaord-13">
          <mxGeometry x="106" y="152" width="30" height="60" as="geometry" />
        </mxCell>
        <mxCell id="yzFiOKYZT9Ef38Pqaord-33" value="User" style="shape=umlActor;verticalLabelPosition=bottom;verticalAlign=top;html=1;outlineConnect=0;dashed=1;strokeColor=#000000;fillColor=none;" vertex="1" parent="yzFiOKYZT9Ef38Pqaord-13">
          <mxGeometry x="166" y="152" width="30" height="60" as="geometry" />
        </mxCell>
        <mxCell id="yzFiOKYZT9Ef38Pqaord-15" value="" style="group" vertex="1" connectable="0" parent="WIyWlLk6GJQsqaUBKTNV-1">
          <mxGeometry x="529" y="360" width="240" height="170" as="geometry" />
        </mxCell>
        <mxCell id="yzFiOKYZT9Ef38Pqaord-9" value="" style="rounded=1;whiteSpace=wrap;html=1;dashed=1;" vertex="1" parent="yzFiOKYZT9Ef38Pqaord-15">
          <mxGeometry y="30" width="240" height="140" as="geometry" />
        </mxCell>
        <mxCell id="yzFiOKYZT9Ef38Pqaord-14" value="Bot" style="text;html=1;strokeColor=none;fillColor=none;align=center;verticalAlign=middle;whiteSpace=wrap;rounded=0;" vertex="1" parent="yzFiOKYZT9Ef38Pqaord-15">
          <mxGeometry x="90" width="60" height="30" as="geometry" />
        </mxCell>
        <mxCell id="yzFiOKYZT9Ef38Pqaord-35" value="Collection" style="ellipse;shape=cloud;whiteSpace=wrap;html=1;dashed=1;strokeColor=#000000;fillColor=none;" vertex="1" parent="yzFiOKYZT9Ef38Pqaord-15">
          <mxGeometry x="62" y="60" width="120" height="80" as="geometry" />
        </mxCell>
        <mxCell id="yzFiOKYZT9Ef38Pqaord-16" value="" style="shape=flexArrow;endArrow=classic;startArrow=classic;html=1;rounded=0;exitX=1;exitY=0.25;exitDx=0;exitDy=0;entryX=-0.004;entryY=0.548;entryDx=0;entryDy=0;entryPerimeter=0;" edge="1" parent="WIyWlLk6GJQsqaUBKTNV-1" source="yzFiOKYZT9Ef38Pqaord-7" target="yzFiOKYZT9Ef38Pqaord-8">
          <mxGeometry width="100" height="100" relative="1" as="geometry">
            <mxPoint x="380" y="260" as="sourcePoint" />
            <mxPoint x="530" y="203" as="targetPoint" />
          </mxGeometry>
        </mxCell>
        <mxCell id="yzFiOKYZT9Ef38Pqaord-21" value="Requirement Process" style="shape=parallelogram;perimeter=parallelogramPerimeter;whiteSpace=wrap;html=1;fixedSize=1;fillColor=none;strokeColor=#000000;dashed=1;" vertex="1" parent="WIyWlLk6GJQsqaUBKTNV-1">
          <mxGeometry x="100" y="280" width="250" height="90" as="geometry" />
        </mxCell>
        <mxCell id="yzFiOKYZT9Ef38Pqaord-22" value="" style="edgeStyle=orthogonalEdgeStyle;rounded=0;orthogonalLoop=1;jettySize=auto;html=1;" edge="1" parent="WIyWlLk6GJQsqaUBKTNV-1" source="yzFiOKYZT9Ef38Pqaord-20" target="yzFiOKYZT9Ef38Pqaord-21">
          <mxGeometry relative="1" as="geometry" />
        </mxCell>
        <mxCell id="yzFiOKYZT9Ef38Pqaord-25" value="" style="shape=flexArrow;endArrow=classic;startArrow=classic;html=1;rounded=0;exitX=1;exitY=0.836;exitDx=0;exitDy=0;exitPerimeter=0;entryX=0.013;entryY=0.55;entryDx=0;entryDy=0;entryPerimeter=0;" edge="1" parent="WIyWlLk6GJQsqaUBKTNV-1" source="yzFiOKYZT9Ef38Pqaord-7" target="yzFiOKYZT9Ef38Pqaord-9">
          <mxGeometry width="100" height="100" relative="1" as="geometry">
            <mxPoint x="380" y="520" as="sourcePoint" />
            <mxPoint x="480" y="420" as="targetPoint" />
          </mxGeometry>
        </mxCell>
        <mxCell id="yzFiOKYZT9Ef38Pqaord-29" value="" style="endArrow=classic;startArrow=classic;html=1;rounded=0;entryX=0.5;entryY=1;entryDx=0;entryDy=0;exitX=0.5;exitY=0;exitDx=0;exitDy=0;exitPerimeter=0;" edge="1" parent="WIyWlLk6GJQsqaUBKTNV-1" source="yzFiOKYZT9Ef38Pqaord-26" target="yzFiOKYZT9Ef38Pqaord-21">
          <mxGeometry width="50" height="50" relative="1" as="geometry">
            <mxPoint x="230" y="420" as="sourcePoint" />
            <mxPoint x="280" y="370" as="targetPoint" />
          </mxGeometry>
        </mxCell>
      </root>
    </mxGraphModel>
  </diagram>
</mxfile>
